<?xml version="1.0" standalone="no"?>
<!DOCTYPE svg PUBLIC "-//W3C//DTD SVG 20010904//EN"
 "http://www.w3.org/TR/2001/REC-SVG-20010904/DTD/svg10.dtd">
<svg version="1.0" xmlns="http://www.w3.org/2000/svg"
 width="1080.000000pt" height="1080.000000pt" viewBox="0 0 1080.000000 1080.000000"
 preserveAspectRatio="xMidYMid meet">
<metadata>
Created by potrace 1.14, written by Peter Selinger 2001-2017
</metadata>
<g transform="translate(0.000000,1080.000000) scale(0.100000,-0.100000)"
fill="#000000" stroke="none">
<path d="M4790 10753 c0 -26 -2 -1330 -3 -2898 -1 -1893 -5 -2850 -12 -2849
-5 1 -44 5 -85 8 -41 4 -84 9 -95 11 -11 3 -36 7 -55 10 -37 5 -72 11 -117 21
-16 3 -39 7 -53 9 -14 2 -32 6 -40 8 -8 2 -28 7 -45 11 -16 4 -50 12 -75 18
-25 6 -66 17 -91 25 -25 8 -52 16 -60 17 -27 5 -104 30 -114 36 -5 4 -23 10
-40 14 -104 25 -598 248 -635 286 -3 3 -26 17 -52 30 -27 14 -48 28 -48 32 0
5 -5 8 -10 8 -21 0 -244 156 -380 264 -96 77 -194 165 -317 285 l-45 44 -21
-34 c-12 -19 -24 -36 -27 -39 -18 -16 -70 -90 -70 -99 0 -6 -4 -11 -10 -11 -5
0 -10 -7 -10 -15 0 -8 -4 -15 -10 -15 -5 0 -10 -7 -10 -15 0 -8 -4 -15 -8 -15
-5 0 -15 -12 -23 -27 -8 -16 -17 -32 -22 -38 -15 -20 -57 -86 -57 -90 0 -2
-14 -28 -31 -57 -52 -88 -149 -278 -149 -294 0 -8 -4 -14 -10 -14 -5 0 -10 -8
-10 -18 0 -10 -4 -22 -8 -27 -7 -9 -52 -117 -97 -235 -12 -29 -24 -66 -30 -90
-1 -3 -4 -12 -8 -20 -7 -20 -30 -92 -33 -105 -1 -5 -12 -44 -24 -85 -11 -41
-23 -86 -26 -100 -2 -14 -11 -52 -19 -85 -8 -33 -17 -78 -20 -100 -10 -65 -14
-93 -20 -123 -14 -79 -26 -186 -21 -198 3 -8 2 -14 -2 -14 -12 0 -16 -115 -16
-380 0 -232 7 -362 27 -490 2 -14 8 -50 12 -80 4 -30 9 -64 12 -75 2 -11 6
-30 9 -42 2 -13 6 -33 8 -45 3 -13 7 -34 10 -48 3 -14 8 -36 11 -50 3 -14 7
-34 10 -45 8 -40 54 -201 64 -227 6 -16 8 -28 5 -28 -4 0 -2 -6 3 -12 6 -7 14
-26 18 -43 5 -16 9 -34 11 -40 15 -52 163 -404 174 -415 3 -3 23 -41 44 -85
21 -44 46 -88 55 -99 9 -10 16 -21 15 -25 -1 -3 4 -15 11 -26 23 -39 110 -177
125 -199 8 -13 28 -42 44 -66 15 -24 33 -48 38 -54 5 -6 36 -47 69 -91 153
-201 316 -374 550 -580 19 -17 63 -53 99 -80 36 -28 67 -52 70 -55 20 -22 239
-170 251 -170 5 0 9 -3 9 -8 0 -4 8 -12 19 -17 64 -34 107 -59 111 -64 3 -3
43 -26 90 -50 47 -24 89 -48 95 -52 5 -5 17 -9 27 -9 10 0 18 -4 18 -10 0 -5
4 -10 10 -10 5 0 38 -14 72 -31 35 -17 74 -35 88 -39 14 -5 59 -23 100 -40 75
-31 296 -107 335 -114 11 -2 31 -9 45 -14 14 -5 28 -10 33 -11 4 0 8 -1 10 -2
10 -3 57 -14 102 -23 11 -2 49 -11 85 -19 36 -8 72 -15 80 -15 8 -1 33 -5 55
-10 22 -6 63 -13 90 -16 28 -3 66 -8 85 -11 174 -22 277 -28 470 -28 146 0
316 7 390 17 14 2 54 7 90 11 36 4 72 8 80 10 8 1 35 6 60 10 65 9 180 33 218
44 17 5 32 8 32 6 0 -2 18 2 40 10 22 8 44 15 48 15 4 0 16 3 28 6 11 3 27 6
35 8 25 4 314 98 324 105 6 4 33 16 60 26 99 35 420 192 505 246 77 49 214
135 228 144 10 6 19 12 22 15 3 3 41 32 85 64 235 175 482 406 645 605 19 24
40 48 45 54 6 7 26 32 44 57 19 25 39 50 45 55 6 6 16 18 21 27 18 30 109 163
116 168 3 3 14 21 25 40 10 19 21 37 24 40 3 3 19 28 35 55 15 28 33 53 39 57
6 4 8 8 4 8 -4 0 6 22 21 49 41 69 141 274 141 289 0 7 5 12 10 12 6 0 10 6
10 14 0 7 10 35 22 62 12 27 23 54 24 59 1 6 8 24 15 40 7 17 13 33 14 38 2 4
3 8 5 10 1 1 3 9 5 17 2 8 17 53 34 100 16 47 41 129 56 183 25 93 29 107 40
159 2 13 8 37 11 53 4 17 8 39 10 50 1 11 3 20 4 20 2 0 9 36 15 85 4 25 8 52
10 60 4 15 12 70 20 145 27 239 27 678 0 855 -3 19 -7 55 -9 80 -3 25 -7 56
-10 70 -5 22 -12 63 -21 125 -2 11 -4 21 -5 23 -3 3 -5 10 -15 67 -4 28 -10
55 -11 60 -3 9 -37 140 -50 190 -7 28 -10 38 -16 55 -3 8 -25 71 -48 140 -71
209 -193 478 -286 631 -19 31 -34 60 -34 63 0 4 -5 12 -10 19 -6 7 -31 44 -55
82 -24 39 -50 79 -59 90 -9 11 -35 47 -59 80 -72 102 -121 165 -129 165 -4 0
-8 4 -8 10 0 11 -12 26 -82 103 -46 50 -59 77 -38 77 6 0 10 6 10 14 0 8 3 16
8 18 8 3 102 125 102 132 0 3 57 93 78 122 20 28 123 217 127 234 3 10 18 45
70 165 14 30 65 188 70 215 2 8 10 43 19 76 9 34 18 77 20 95 3 19 5 34 6 34
4 0 12 50 27 185 8 73 7 354 -1 415 -3 22 -8 63 -11 90 -3 28 -8 60 -10 73 -3
12 -7 34 -10 48 -3 15 -13 57 -21 93 -8 36 -17 77 -20 90 -3 14 -8 29 -12 35
-3 6 -8 20 -9 31 -2 11 -9 36 -17 55 -8 19 -26 67 -41 105 -33 86 -146 319
-157 323 -4 2 -8 8 -8 12 0 8 -31 62 -70 120 -24 37 -113 164 -125 179 -70 85
-136 162 -166 194 -21 20 -36 37 -34 37 3 0 -99 99 -159 156 -15 14 -114 101
-146 128 -57 47 -191 146 -199 146 -5 0 -11 4 -13 8 -2 7 -123 89 -203 139
-158 98 -483 259 -633 315 -32 11 -61 24 -67 28 -5 4 -91 33 -190 65 -99 32
-187 60 -195 63 -8 3 -22 6 -30 8 -8 1 -58 14 -110 28 -52 14 -106 27 -120 30
-56 12 -127 27 -155 32 -16 3 -48 9 -70 14 -22 5 -60 11 -85 15 -25 3 -63 8
-85 12 -61 9 -52 8 -250 29 -94 10 -146 13 -347 20 l-188 6 0 -49z"/>
</g>
</svg>
