<svg width="189" height="270" viewBox="0 0 189 270" fill="none" xmlns="http://www.w3.org/2000/svg">
<path d="M178.399 73.3813C178.399 87.676 172.936 101.015 163.487 112.235C161.667 114.436 159.672 116.555 157.548 118.549C147.448 128.189 134.14 135.919 118.882 140.821C118.795 140.864 118.708 140.864 118.579 140.904C107.611 144.395 95.6036 146.431 82.9891 146.682C82.0792 146.723 81.1255 146.723 80.1713 146.723C79.8688 146.723 79.5219 146.723 79.2183 146.682V0.0413173C79.5219 -1.59945e-05 79.8688 -7.53069e-06 80.1713 -7.53069e-06C134.4 -7.53069e-06 178.399 32.8267 178.399 73.3813" fill="url(#paint0_linear_770_5)"/>
<path d="M188.984 174.653C188.984 226.863 146.659 269.147 94.4916 269.147C91.99 269.147 89.5296 269.063 87.0692 268.813C38.3638 265.06 0.000366211 224.361 0.000366211 174.653C0.000366211 152.678 7.5061 132.496 20.0577 116.483C36.0701 133.163 58.2545 143.923 82.8993 145.172V145.297C83.191 145.34 83.5249 145.34 83.8165 145.34C84.7337 145.34 85.6514 145.34 86.5269 145.297H87.0692C87.3608 145.34 87.6946 145.34 87.9862 145.34C99.4957 145.34 110.546 143.296 120.762 139.501C120.887 139.46 120.971 139.46 121.055 139.419C135.733 134.497 148.535 126.741 158.251 117.067C160.295 115.065 162.212 112.939 163.964 110.728C179.517 127.533 188.984 150.009 188.984 174.653" fill="url(#paint1_linear_770_5)"/>
<defs>
<linearGradient id="paint0_linear_770_5" x1="72.8036" y1="-52.0933" x2="136.26" y2="126.124" gradientUnits="userSpaceOnUse">
<stop stop-color="#51C6E4"/>
<stop offset="1" stop-color="#87D6C1"/>
</linearGradient>
<linearGradient id="paint1_linear_770_5" x1="119.931" y1="91.8133" x2="70.5908" y2="252.503" gradientUnits="userSpaceOnUse">
<stop stop-color="#51C6E4"/>
<stop offset="1" stop-color="#87D6C1"/>
</linearGradient>
</defs>
</svg>
